# xmcd
#
# Track frame offsets: 
#        183
#        22550
#        44828
#        65748
#        87805
#        121480
#        138025
#        160730
#
# Disc length: 2431 seconds
#
# Revision: 3
# Processed by: cddbd v1.5.2PL0 Copyright (c) Steve Scherf et al.
# Submitted via: ExactAudioCopyFreeDBPlugin 1.0
#
DISCID=60097d08
DTITLE=The Winans - Let My Peopel Go
DYEAR=1985
DGENRE=R&B
TTITLE0=Choose Ye
TTITLE1=Redeemed
TTITLE2=Perfect Love
TTITLE3=Straighten My Life Out
TTITLE4=Let My People Go
TTITLE5=I'll Follow Where You Lead
TTITLE6=Special Lady
TTITLE7=Very Real Way
EXTD=
EXTT0=
EXTT1=
EXTT2=
EXTT3=
EXTT4=
EXTT5=
EXTT6=
EXTT7=
PLAYORDER=
